# Blender 4.4.3
# www.blender.org
o Cylinder
v 0.000000 -0.411203 -0.708314
v 0.000000 0.845891 -1.118674
v 0.272730 -0.411199 -0.654059
v 0.429139 0.845900 -1.033329
v 0.503929 -0.411186 -0.499558
v 0.792978 0.845926 -0.790272
v 0.658393 -0.411168 -0.268344
v 1.036136 0.845964 -0.426477
v 0.712611 -0.411145 0.004371
v 1.121584 0.846009 0.002704
v 0.658341 -0.411124 0.277065
v 1.036281 0.846054 0.431946
v 0.503855 -0.411105 0.508227
v 0.793182 0.846093 0.795886
v 0.272679 -0.411092 0.662676
v 0.429284 0.846118 1.039087
v 0.000000 -0.411088 0.716909
v 0.000000 0.846128 1.124493
v -0.272679 -0.411092 0.662676
v -0.429284 0.846118 1.039087
v -0.503855 -0.411105 0.508227
v -0.793182 0.846093 0.795886
v -0.658341 -0.411124 0.277065
v -1.036281 0.846054 0.431946
v -0.712611 -0.411145 0.004371
v -1.121584 0.846009 0.002704
v -0.658393 -0.411168 -0.268344
v -1.036136 0.845964 -0.426477
v -0.503929 -0.411186 -0.499558
v -0.792978 0.845926 -0.790272
v -0.272730 -0.411199 -0.654059
v -0.429139 0.845900 -1.033329
v 0.000000 2.012764 -1.120083
v 0.428637 2.012764 -1.034822
v 0.792018 2.012764 -0.792018
v 1.034822 2.012764 -0.428637
v 1.120083 2.012764 -0.000000
v 1.034822 2.012764 0.428637
v 0.792018 2.012764 0.792018
v 0.428637 2.012764 1.034822
v 0.000000 2.012764 1.120083
v -0.428637 2.012764 1.034822
v -0.792018 2.012764 0.792018
v -1.034822 2.012764 0.428637
v -1.120083 2.012764 -0.000000
v -1.034822 2.012764 -0.428637
v -0.792018 2.012764 -0.792018
v -0.428637 2.012764 -1.034822
v -0.000000 3.032248 -0.877576
v 0.335834 3.032248 -0.810774
v 0.620540 3.032248 -0.620540
v 0.810774 3.032248 -0.335834
v 0.877576 3.032248 0.000000
v 0.810774 3.032248 0.335834
v 0.620540 3.032248 0.620540
v 0.335834 3.032248 0.810774
v -0.000000 3.032248 0.877576
v -0.335834 3.032248 0.810774
v -0.620540 3.032248 0.620540
v -0.810774 3.032248 0.335834
v -0.877576 3.032248 0.000000
v -0.810774 3.032248 -0.335834
v -0.620540 3.032248 -0.620540
v -0.335834 3.032248 -0.810774
v -0.000000 4.001854 -0.520439
v 0.199163 4.001854 -0.480823
v 0.368006 4.001854 -0.368006
v 0.480823 4.001854 -0.199163
v 0.520439 4.001854 0.000000
v 0.480823 4.001854 0.199163
v 0.368006 4.001854 0.368006
v 0.199163 4.001854 0.480823
v -0.000000 4.001854 0.520439
v -0.199163 4.001854 0.480823
v -0.368006 4.001854 0.368006
v -0.480823 4.001854 0.199163
v -0.520439 4.001854 0.000000
v -0.480823 4.001854 -0.199163
v -0.368006 4.001854 -0.368006
v -0.199163 4.001854 -0.480823
v -0.000000 4.974499 0.000000
v 0.000000 -0.843499 0.000000
v 0.000000 0.198245 -0.952776
v 0.367625 0.198245 -0.879650
v 0.679283 0.198245 -0.671407
v 0.887526 0.198245 -0.359750
v 0.960651 0.198245 0.007876
v 0.887526 0.198245 0.375501
v 0.679283 0.198245 0.687158
v 0.367625 0.198245 0.895401
v 0.000000 0.198245 0.968527
v -0.367625 0.198245 0.895401
v -0.679283 0.198245 0.687158
v -0.887526 0.198245 0.375501
v -0.960651 0.198245 0.007876
v -0.887526 0.198245 -0.359750
v -0.679283 0.198245 -0.671407
v -0.367625 0.198245 -0.879650
vn -0.0000 -0.6271 -0.7789
vn -0.0000 -0.1238 -0.9923
vn 0.2980 -0.6274 -0.7195
vn 0.3796 -0.1234 -0.9169
vn 0.5502 -0.6280 -0.5503
vn 0.7016 -0.1224 -0.7020
vn 0.7182 -0.6290 -0.2976
vn 0.9170 -0.1209 -0.3802
vn 0.7765 -0.6301 -0.0001
vn 0.9929 -0.1190 -0.0004
vn 0.7166 -0.6313 0.2967
vn 0.9176 -0.1172 0.3797
vn 0.5479 -0.6322 0.5478
vn 0.7026 -0.1157 0.7022
vn 0.2964 -0.6328 0.7153
vn 0.3803 -0.1147 0.9177
vn -0.0000 -0.6331 0.7741
vn -0.0000 -0.1143 0.9934
vn -0.2964 -0.6328 0.7153
vn -0.3803 -0.1147 0.9177
vn -0.5479 -0.6322 0.5478
vn -0.7026 -0.1157 0.7022
vn -0.7166 -0.6313 0.2967
vn -0.9176 -0.1172 0.3797
vn -0.7765 -0.6301 -0.0001
vn -0.9929 -0.1190 -0.0004
vn -0.7182 -0.6290 -0.2976
vn -0.9170 -0.1209 -0.3802
vn -0.5502 -0.6280 -0.5503
vn -0.7016 -0.1224 -0.7020
vn -0.2980 -0.6274 -0.7195
vn -0.3796 -0.1234 -0.9169
vn -0.0000 0.1143 -0.9935
vn 0.3801 0.1144 -0.9178
vn 0.7024 0.1146 -0.7025
vn 0.9177 0.1150 -0.3803
vn 0.9933 0.1155 -0.0002
vn 0.9177 0.1160 0.3799
vn 0.7024 0.1164 0.7022
vn 0.3801 0.1166 0.9175
vn -0.0000 0.1167 0.9932
vn -0.3801 0.1166 0.9175
vn -0.7024 0.1164 0.7022
vn -0.9177 0.1160 0.3799
vn -0.9933 0.1155 -0.0002
vn -0.9177 0.1150 -0.3803
vn -0.7024 0.1146 -0.7025
vn -0.3801 0.1144 -0.9178
vn -0.0000 0.2870 -0.9579
vn 0.3666 0.2870 -0.8850
vn 0.6774 0.2870 -0.6774
vn 0.8850 0.2870 -0.3666
vn 0.9579 0.2870 -0.0000
vn 0.8850 0.2870 0.3666
vn 0.6774 0.2870 0.6774
vn 0.3666 0.2870 0.8850
vn -0.0000 0.2870 0.9579
vn -0.3666 0.2870 0.8850
vn -0.6774 0.2870 0.6774
vn -0.8850 0.2870 0.3666
vn -0.9579 0.2870 -0.0000
vn -0.8850 0.2870 -0.3666
vn -0.6774 0.2870 -0.6774
vn -0.3666 0.2870 -0.8850
vn -0.0000 0.4065 -0.9136
vn 0.3496 0.4065 -0.8441
vn 0.6460 0.4065 -0.6460
vn 0.8441 0.4065 -0.3496
vn 0.9136 0.4065 -0.0000
vn 0.8441 0.4065 0.3496
vn 0.6460 0.4065 0.6460
vn 0.3496 0.4065 0.8441
vn -0.0000 0.4065 0.9136
vn -0.3496 0.4065 0.8441
vn -0.6460 0.4065 0.6460
vn -0.8441 0.4065 0.3496
vn -0.9136 0.4065 -0.0000
vn -0.8441 0.4065 -0.3496
vn -0.6460 0.4065 -0.6460
vn -0.3496 0.4065 -0.8441
vn -0.0000 1.0000 -0.0000
vn -0.0000 -1.0000 -0.0027
vn -0.0000 -0.3085 -0.9512
vn 0.3643 -0.3084 -0.8787
vn 0.6731 -0.3082 -0.6723
vn 0.8793 -0.3077 -0.3635
vn 0.9516 -0.3073 0.0008
vn 0.8791 -0.3068 0.3649
vn 0.6727 -0.3064 0.6735
vn 0.3640 -0.3061 0.8796
vn -0.0000 -0.3060 0.9520
vn -0.3640 -0.3061 0.8796
vn -0.6727 -0.3064 0.6735
vn -0.8791 -0.3068 0.3649
vn -0.9516 -0.3073 0.0008
vn -0.8793 -0.3077 -0.3635
vn -0.6731 -0.3082 -0.6723
vn -0.3643 -0.3084 -0.8787
vt 1.000000 0.750000
vt 1.000000 1.000000
vt 0.937500 1.000000
vt 0.937500 0.750000
vt 0.875000 1.000000
vt 0.875000 0.750000
vt 0.812500 1.000000
vt 0.812500 0.750000
vt 0.750000 1.000000
vt 0.750000 0.750000
vt 0.687500 1.000000
vt 0.687500 0.750000
vt 0.625000 1.000000
vt 0.625000 0.750000
vt 0.562500 1.000000
vt 0.562500 0.750000
vt 0.500000 1.000000
vt 0.500000 0.750000
vt 0.437500 1.000000
vt 0.437500 0.750000
vt 0.375000 1.000000
vt 0.375000 0.750000
vt 0.312500 1.000000
vt 0.312500 0.750000
vt 0.250000 1.000000
vt 0.250000 0.750000
vt 0.187500 1.000000
vt 0.187500 0.750000
vt 0.125000 1.000000
vt 0.125000 0.750000
vt 0.062500 1.000000
vt 0.062500 0.750000
vt 0.000000 1.000000
vt 0.000000 0.750000
vt 0.875000 0.500000
vt 0.812500 0.500000
vt 0.750000 0.500000
vt 0.687500 0.500000
vt 0.312500 0.500000
vt 0.250000 0.500000
vt 0.625000 0.500000
vt 0.562500 0.500000
vt 0.937500 0.500000
vt 0.187500 0.500000
vt 0.125000 0.500000
vt 0.500000 0.500000
vt 0.437500 0.500000
vt 0.062500 0.500000
vt 0.000000 0.500000
vt 0.375000 0.500000
vt 1.000000 0.500000
s 1
f 83/1/83 2/2/2 4/3/4 84/4/84
f 84/4/84 4/3/4 6/5/6 85/6/85
f 85/6/85 6/5/6 8/7/8 86/8/86
f 86/8/86 8/7/8 10/9/10 87/10/87
f 87/10/87 10/9/10 12/11/12 88/12/88
f 88/12/88 12/11/12 14/13/14 89/14/89
f 89/14/89 14/13/14 16/15/16 90/16/90
f 90/16/90 16/15/16 18/17/18 91/18/91
f 91/18/91 18/17/18 20/19/20 92/20/92
f 92/20/92 20/19/20 22/21/22 93/22/93
f 93/22/93 22/21/22 24/23/24 94/24/94
f 94/24/94 24/23/24 26/25/26 95/26/95
f 95/26/95 26/25/26 28/27/28 96/28/96
f 96/28/96 28/27/28 30/29/30 97/30/97
f 12/11/12 10/9/10 37/9/37 38/11/38
f 97/30/97 30/29/30 32/31/32 98/32/98
f 98/32/98 32/31/32 2/33/2 83/34/83
f 5/35/5 7/36/7 82/35/82
f 37/9/37 36/7/36 52/7/52 53/9/53
f 22/21/22 20/19/20 42/19/42 43/21/43
f 32/31/32 30/29/30 47/29/47 48/31/48
f 8/7/8 6/5/6 35/5/35 36/7/36
f 18/17/18 16/15/16 40/15/40 41/17/41
f 4/3/4 2/2/2 33/2/33 34/3/34
f 28/27/28 26/25/26 45/25/45 46/27/46
f 14/13/14 12/11/12 38/11/38 39/13/39
f 24/23/24 22/21/22 43/21/43 44/23/44
f 2/33/2 32/31/32 48/31/48 33/33/33
f 10/9/10 8/7/8 36/7/36 37/9/37
f 20/19/20 18/17/18 41/17/41 42/19/42
f 30/29/30 28/27/28 46/27/46 47/29/47
f 6/5/6 4/3/4 34/3/34 35/5/35
f 16/15/16 14/13/14 39/13/39 40/15/40
f 26/25/26 24/23/24 44/23/44 45/25/45
f 58/19/58 57/17/57 73/17/73 74/19/74
f 45/25/45 44/23/44 60/23/60 61/25/61
f 38/11/38 37/9/37 53/9/53 54/11/54
f 46/27/46 45/25/45 61/25/61 62/27/62
f 39/13/39 38/11/38 54/11/54 55/13/55
f 47/29/47 46/27/46 62/27/62 63/29/63
f 40/15/40 39/13/39 55/13/55 56/15/56
f 48/31/48 47/29/47 63/29/63 64/31/64
f 41/17/41 40/15/40 56/15/56 57/17/57
f 34/3/34 33/2/33 49/2/49 50/3/50
f 33/33/33 48/31/48 64/31/64 49/33/49
f 42/19/42 41/17/41 57/17/57 58/19/58
f 35/5/35 34/3/34 50/3/50 51/5/51
f 43/21/43 42/19/42 58/19/58 59/21/59
f 36/7/36 35/5/35 51/5/51 52/7/52
f 44/23/44 43/21/43 59/21/59 60/23/60
f 79/29/79 78/27/78 81/29/81
f 51/5/51 50/3/50 66/3/66 67/5/67
f 59/21/59 58/19/58 74/19/74 75/21/75
f 52/7/52 51/5/51 67/5/67 68/7/68
f 60/23/60 59/21/59 75/21/75 76/23/76
f 53/9/53 52/7/52 68/7/68 69/9/69
f 61/25/61 60/23/60 76/23/76 77/25/77
f 54/11/54 53/9/53 69/9/69 70/11/70
f 62/27/62 61/25/61 77/25/77 78/27/78
f 55/13/55 54/11/54 70/11/70 71/13/71
f 63/29/63 62/27/62 78/27/78 79/29/79
f 56/15/56 55/13/55 71/13/71 72/15/72
f 64/31/64 63/29/63 79/29/79 80/31/80
f 57/17/57 56/15/56 72/15/72 73/17/73
f 50/3/50 49/2/49 65/2/65 66/3/66
f 49/33/49 64/31/64 80/31/80 65/33/65
f 9/37/9 11/38/11 82/37/82
f 72/15/72 71/13/71 81/15/81
f 80/31/80 79/29/79 81/31/81
f 73/17/73 72/15/72 81/17/81
f 66/3/66 65/2/65 81/3/81
f 65/33/65 80/31/80 81/33/81
f 74/19/74 73/17/73 81/19/81
f 67/5/67 66/3/66 81/5/81
f 75/21/75 74/19/74 81/21/81
f 68/7/68 67/5/67 81/7/81
f 76/23/76 75/21/75 81/23/81
f 69/9/69 68/7/68 81/9/81
f 77/25/77 76/23/76 81/25/81
f 70/11/70 69/9/69 81/11/81
f 78/27/78 77/25/77 81/27/81
f 71/13/71 70/11/70 81/13/81
f 23/39/23 25/40/25 82/39/82
f 13/41/13 15/42/15 82/41/82
f 3/43/3 5/35/5 82/43/82
f 27/44/27 29/45/29 82/44/82
f 17/46/17 19/47/19 82/46/82
f 7/36/7 9/37/9 82/36/82
f 31/48/31 1/49/1 82/48/82
f 21/50/21 23/39/23 82/50/82
f 11/38/11 13/41/13 82/38/82
f 25/40/25 27/44/27 82/40/82
f 1/51/1 3/43/3 82/51/82
f 15/42/15 17/46/17 82/42/82
f 19/47/19 21/50/21 82/47/82
f 29/45/29 31/48/31 82/45/82
f 31/48/31 98/32/98 83/34/83 1/49/1
f 29/45/29 97/30/97 98/32/98 31/48/31
f 27/44/27 96/28/96 97/30/97 29/45/29
f 25/40/25 95/26/95 96/28/96 27/44/27
f 23/39/23 94/24/94 95/26/95 25/40/25
f 21/50/21 93/22/93 94/24/94 23/39/23
f 19/47/19 92/20/92 93/22/93 21/50/21
f 17/46/17 91/18/91 92/20/92 19/47/19
f 15/42/15 90/16/90 91/18/91 17/46/17
f 13/41/13 89/14/89 90/16/90 15/42/15
f 11/38/11 88/12/88 89/14/89 13/41/13
f 9/37/9 87/10/87 88/12/88 11/38/11
f 7/36/7 86/8/86 87/10/87 9/37/9
f 5/35/5 85/6/85 86/8/86 7/36/7
f 3/43/3 84/4/84 85/6/85 5/35/5
f 1/51/1 83/1/83 84/4/84 3/43/3
